<svg width="31" height="31" viewBox="0 0 31 31" fill="none" xmlns="http://www.w3.org/2000/svg">
<path d="M19.2444 5.51367C18.9319 5.63086 18.7756 5.8457 18.7756 6.1582C18.7756 6.4707 18.9319 6.68555 19.2444 6.80273L22.5256 8.0332L23.7561 11.373C23.8733 11.6465 24.0881 11.7832 24.4006 11.7832C24.7131 11.7832 24.928 11.6465 25.0452 11.373L26.2756 8.0332L29.6155 6.80273C29.8889 6.68555 30.0256 6.4707 30.0256 6.1582C30.0256 5.8457 29.8889 5.63086 29.6155 5.51367L26.2756 4.2832L25.0452 1.00195C24.928 0.689453 24.7131 0.533203 24.4006 0.533203C24.0881 0.533203 23.8733 0.689453 23.7561 1.00195L22.5256 4.2832L19.2444 5.51367ZM12.0374 4.81055C11.8811 4.45898 11.6077 4.2832 11.217 4.2832C10.8264 4.2832 10.5334 4.45898 10.3381 4.81055L7.23267 11.4902L0.552979 14.5957C0.201416 14.791 0.0256348 15.084 0.0256348 15.4746C0.0256348 15.8652 0.201416 16.1387 0.552979 16.2949L7.23267 19.4004L10.3381 26.0801C10.5334 26.4316 10.8264 26.6074 11.217 26.6074C11.5686 26.6074 11.842 26.4316 12.0374 26.0801L15.1428 19.4004L21.8225 16.2949C22.1741 16.0996 22.3499 15.8066 22.3499 15.416C22.3499 15.0645 22.1741 14.791 21.8225 14.5957L15.1428 11.4902L12.0374 4.81055ZM22.5256 23.0332L19.2444 24.2637C18.9319 24.3809 18.7756 24.5957 18.7756 24.9082C18.7756 25.2207 18.9319 25.4355 19.2444 25.5527L22.5256 26.7832L23.7561 30.123C23.8733 30.3965 24.0881 30.5332 24.4006 30.5332C24.7131 30.5332 24.928 30.3965 25.0452 30.123L26.2756 26.7832L29.6155 25.5527C29.8889 25.4355 30.0256 25.2207 30.0256 24.9082C30.0256 24.5957 29.8889 24.3809 29.6155 24.2637L26.2756 23.0332L25.0452 19.752C24.928 19.4395 24.7131 19.2832 24.4006 19.2832C24.0881 19.2832 23.8733 19.4395 23.7561 19.752L22.5256 23.0332Z" fill="black"/>
</svg>
