<svg width="60" height="60" viewBox="0 0 60 60" fill="none" xmlns="http://www.w3.org/2000/svg">
<g filter="url(#filter0_f_322_2882)">
<path d="M28.7261 56.7388C42.7133 56.7388 54.3401 45.1122 54.3401 31.125C54.3401 17.1128 42.6882 5.51123 28.701 5.51123C14.6887 5.51123 3.1123 17.1128 3.1123 31.125C3.1123 45.1122 14.7138 56.7388 28.7261 56.7388ZM36.1591 36.4236C37.8918 36.4236 39.6496 36.0469 40.7043 35.6702C40.9806 35.5949 41.1563 35.5697 41.307 35.5697C41.7088 35.5697 42.1357 35.9214 42.1357 36.4486C42.1357 36.5491 42.1106 36.8756 41.985 37.2021C40.177 41.7723 34.9788 45.4637 28.9522 45.4637C20.6904 45.4637 14.3874 39.5625 14.3874 31.3007C14.3874 25.3995 17.8779 19.7745 23.076 17.7154C23.4025 17.5899 23.7038 17.5648 23.8796 17.5648C24.4069 17.5648 24.7082 17.9917 24.7082 18.3684C24.7082 18.4938 24.6832 18.6947 24.5576 19.0212C24.1056 20.2015 23.6787 22.4364 23.6787 24.0184C23.6787 31.6272 28.5503 36.4236 36.1591 36.4236Z" fill="#F2851C"/>
</g>
<path d="M30.0015 55.615C43.9887 55.615 55.6155 43.9884 55.6155 30.0012C55.6155 15.989 43.9636 4.38745 29.9764 4.38745C15.9641 4.38745 4.3877 15.989 4.3877 30.0012C4.3877 43.9884 15.9892 55.615 30.0015 55.615ZM37.4345 35.2998C39.1672 35.2998 40.925 34.9232 41.9797 34.5464C42.2559 34.4711 42.4317 34.4459 42.5824 34.4459C42.9842 34.4459 43.411 34.7976 43.411 35.3248C43.411 35.4253 43.386 35.7518 43.2604 36.0783C41.4524 40.6486 36.2542 44.34 30.2276 44.34C21.9658 44.34 15.6628 38.4387 15.6628 30.177C15.6628 24.2757 19.1533 18.6507 24.3514 16.5917C24.6779 16.4661 24.9792 16.441 25.155 16.441C25.6823 16.441 25.9836 16.8679 25.9836 17.2446C25.9836 17.3701 25.9586 17.571 25.833 17.8974C25.3809 19.0777 24.9541 21.3126 24.9541 22.8947C24.9541 30.5034 29.8257 35.2998 37.4345 35.2998Z" fill="url(#paint0_linear_322_2882)"/>
<defs>
<filter id="filter0_f_322_2882" x="0.712305" y="3.11123" width="56.0275" height="56.0275" filterUnits="userSpaceOnUse" color-interpolation-filters="sRGB">
<feFlood flood-opacity="0" result="BackgroundImageFix"/>
<feBlend mode="normal" in="SourceGraphic" in2="BackgroundImageFix" result="shape"/>
<feGaussianBlur stdDeviation="1.2" result="effect1_foregroundBlur_322_2882"/>
</filter>
<linearGradient id="paint0_linear_322_2882" x1="30.0016" y1="4.38745" x2="30.0016" y2="55.615" gradientUnits="userSpaceOnUse">
<stop stop-color="#F8B672"/>
<stop offset="1" stop-color="#F2851C"/>
</linearGradient>
</defs>
</svg>
