<svg width="63" height="23" viewBox="0 0 63 23" fill="none" xmlns="http://www.w3.org/2000/svg">
<path d="M18.2288 0.73999L13.6113 16.0636C13.6113 16.0636 12.4384 9.58161 12.3223 8.76769C9.69351 2.09392 5.81445 2.46566 5.81445 2.46566L10.3863 22.262V22.258H15.9447L23.6307 0.73999H18.2288Z" fill="#1565C0"/>
<path d="M22.6309 22.2618H27.6793L30.7319 0.739868H25.6202L22.6309 22.2618Z" fill="#1565C0"/>
<path d="M58.3599 0.739868H53.0477L44.7656 22.2618H49.7806L50.8146 19.1881H57.1378L57.6759 22.2618H62.2706L58.3599 0.739868ZM52.2143 15.0774L54.9627 6.94406L56.401 15.0774H52.2143Z" fill="#1565C0"/>
<path d="M37.8936 7.01255C37.8936 5.82688 38.7693 4.94448 41.2803 4.94448C42.9121 4.94448 44.7813 6.26319 44.7813 6.26319L45.6008 1.74553C45.6008 1.74553 43.2128 0.737916 40.8689 0.737916C35.5602 0.737916 32.8224 3.56316 32.8224 7.13972C32.8224 13.6081 39.8191 12.7217 39.8191 16.044C39.8191 16.6133 39.4129 17.9301 36.4992 17.9301C33.5767 17.9301 31.6478 16.7385 31.6478 16.7385L30.7773 21.0742C30.7773 21.0742 32.6465 22.2599 36.2583 22.2599C39.8789 22.2599 44.9009 19.2468 44.9009 14.9189C44.9009 9.71258 37.8936 9.33692 37.8936 7.01255Z" fill="#1565C0"/>
<path d="M13.0005 12.3717L11.3018 3.08201C11.3018 3.08201 10.5334 1.06872 8.53587 1.06872C6.53831 1.06872 0.728515 1.06872 0.728515 1.06872C0.728515 1.06872 10.6829 4.34006 13.0005 12.3717Z" fill="#FFC107"/>
</svg>
