<svg width="587" height="196" viewBox="0 0 587 196" fill="none" xmlns="http://www.w3.org/2000/svg">
<path d="M23 173.001V23.001H564.071" stroke="#FF6700" stroke-opacity="0.5" stroke-width="45.5116"/>
<path d="M23 173.001H564.071V23.001" stroke="#FF6700" stroke-opacity="0.5" stroke-width="45.5116"/>
<path d="M564.071 23H23V173H564.071V23Z" fill="#F2851C"/>
<path d="M59.0007 51.6311L80.1253 117.298H91.4413L111.255 56.0029L120.758 117.298H130.239L119.142 46.4522H109.333L88.2956 111.805L67.2801 46.4522H55.5491L44.8447 117.298H49.192L59.0007 51.6311ZM149.747 46.4522H140.354V117.298H149.747V46.4522ZM166.241 51.5414L197.873 117.298H209.298V46.4522H204.951V111.379L173.712 46.4522H161.893V117.298H166.241V51.5414ZM243.05 117.298C262.055 117.298 277.609 101.313 277.609 81.8302C277.609 62.4149 262.055 46.4522 243.05 46.4522H221.925V117.298H243.05ZM231.428 50.8016H237.697C253.754 50.8016 266.905 64.2981 266.905 80.7765V82.9736C266.905 99.4519 253.754 112.836 237.697 112.836H231.428V50.8016ZM333.119 97.7032C332.201 74.3421 299.04 81.2921 299.04 62.6391C299.04 61.8096 299.149 60.98 299.258 60.0384C300.263 52.8866 307.035 49.9721 313.698 49.9721H315.009C321.89 50.2859 326.434 55.5769 326.937 61.4957L330.17 60.1505C328.553 48.8287 318.351 45.5106 309.045 45.4209C300.962 45.4209 287.527 49.3443 287.527 65.8451C287.527 88.6681 323.398 84.0946 323.398 102.053V102.456C323.092 111.065 314.616 114.092 307.844 114.092C291.678 112.948 291.263 100.08 291.263 98.6224V98.5327L286.216 100.483C287.112 112.948 297.423 118.755 308.149 118.845H308.455C320.47 118.845 333.119 111.693 333.119 98.4206V97.7032ZM354.134 46.4522H344.741V117.298H354.134V46.4522ZM398 118.845C407.088 118.845 417.203 114.383 422.467 107.859V77.3687H402.85V81.8302H413.052V109.003C408.617 112.522 403.855 114.495 399.42 114.495C384.762 114.495 374.757 101.537 374.757 81.8302C374.757 62.527 387.798 49.7703 400.316 49.7703C406.891 49.7703 416.503 54.1197 419.518 61.8096L421.659 59.7245C417.902 51.2276 408.421 45.4209 396.69 45.4209C374.953 45.4209 364.249 62.527 364.249 81.8302C364.249 105.371 379.41 118.845 398 118.845ZM442.478 81.8302H476.426V117.298H485.929V46.4522H476.426V77.3687H442.478V46.4522H433.062V117.298H442.478V81.8302ZM513.432 117.298H522.826V50.8016H542.225V46.4522H494.012V50.8016H513.432V117.298Z" fill="white"/>
<path d="M211.093 132.626V150.27H213.277V143.276H216.358C217.297 143.276 218.171 143.164 218.935 142.939C219.722 142.715 220.399 142.379 220.945 141.93C221.513 141.482 221.95 140.922 222.256 140.227C222.562 139.554 222.715 138.747 222.715 137.805C222.715 136.841 222.562 136.034 222.256 135.362C221.95 134.711 221.513 134.173 220.967 133.77C220.421 133.366 219.744 133.075 218.957 132.895C218.171 132.716 217.297 132.626 216.358 132.626H211.093ZM216.095 141.437H213.277V134.42H216.095C217.581 134.42 218.695 134.667 219.438 135.16C220.159 135.653 220.53 136.55 220.53 137.805C220.53 139.061 220.159 139.98 219.438 140.563C218.717 141.146 217.603 141.437 216.095 141.437ZM226.188 132.626V150.27H236.368V148.365H228.373V141.953H234.904V140.047H228.373V134.51H236.106V132.626H226.188ZM242.179 140.989V134.42H245.063C246.417 134.42 247.444 134.667 248.165 135.115C248.886 135.586 249.235 136.415 249.235 137.581C249.235 138.724 248.886 139.576 248.165 140.137C247.444 140.697 246.417 140.989 245.063 140.989H242.179ZM249.454 150.27H251.9L247.553 142.581C248.733 142.267 249.672 141.706 250.371 140.877C251.07 140.047 251.42 138.949 251.42 137.581C251.42 136.662 251.267 135.877 250.961 135.249C250.677 134.622 250.262 134.128 249.716 133.725C249.191 133.321 248.558 133.052 247.815 132.873C247.072 132.716 246.264 132.626 245.39 132.626H240.016V150.27H242.179V142.827H245.303L249.454 150.27ZM255.243 132.626V150.27H257.405V142.356H263.959V140.473H257.405V134.51H265.139V132.626H255.243ZM274.27 150.584C275.362 150.584 276.345 150.383 277.241 149.957C278.137 149.508 278.923 148.903 279.579 148.096C280.234 147.311 280.736 146.347 281.108 145.204C281.457 144.06 281.632 142.782 281.632 141.37C281.632 139.958 281.457 138.702 281.108 137.581C280.736 136.46 280.234 135.518 279.579 134.734C278.923 133.949 278.137 133.344 277.241 132.94C276.345 132.514 275.362 132.29 274.27 132.29C273.178 132.29 272.195 132.514 271.299 132.918C270.403 133.321 269.617 133.927 268.984 134.711C268.328 135.496 267.826 136.438 267.476 137.559C267.105 138.68 266.93 139.958 266.93 141.37C266.93 142.782 267.105 144.06 267.476 145.204C267.826 146.347 268.328 147.311 268.984 148.096C269.617 148.903 270.403 149.508 271.299 149.957C272.195 150.383 273.178 150.584 274.27 150.584ZM274.27 148.634C273.506 148.634 272.807 148.455 272.195 148.118C271.561 147.782 271.037 147.289 270.578 146.661C270.141 146.011 269.792 145.249 269.552 144.374C269.311 143.477 269.18 142.468 269.18 141.37C269.18 140.271 269.311 139.285 269.552 138.411C269.792 137.536 270.141 136.774 270.578 136.169C271.037 135.563 271.561 135.092 272.195 134.756C272.807 134.42 273.506 134.263 274.27 134.263C275.035 134.263 275.734 134.42 276.345 134.756C276.979 135.092 277.503 135.563 277.962 136.169C278.399 136.774 278.749 137.536 278.989 138.411C279.229 139.285 279.36 140.271 279.36 141.37C279.36 142.468 279.229 143.477 278.989 144.374C278.749 145.249 278.399 146.011 277.962 146.661C277.503 147.289 276.979 147.782 276.345 148.118C275.734 148.455 275.035 148.634 274.27 148.634ZM287.509 140.989V134.42H290.392C291.747 134.42 292.773 134.667 293.494 135.115C294.193 135.586 294.565 136.415 294.565 137.581C294.565 138.724 294.193 139.576 293.494 140.137C292.773 140.697 291.747 140.989 290.392 140.989H287.509ZM294.761 150.27H297.23L292.883 142.581C294.062 142.267 294.98 141.706 295.679 140.877C296.378 140.047 296.727 138.949 296.727 137.581C296.727 136.662 296.596 135.877 296.291 135.249C295.985 134.622 295.57 134.128 295.045 133.725C294.521 133.321 293.866 133.052 293.123 132.873C292.38 132.716 291.572 132.626 290.698 132.626H285.324V150.27H287.509V142.827H290.632L294.761 150.27ZM300.572 132.626V150.27H302.582V140.563C302.582 139.778 302.538 138.904 302.473 137.94C302.407 136.998 302.342 136.124 302.298 135.339H302.407L303.762 139.263L307.082 148.499H308.327L311.626 139.263L313.024 135.339H313.112C313.046 136.124 312.981 136.998 312.915 137.94C312.871 138.904 312.828 139.778 312.828 140.563V150.27H314.903V132.626H312.325L309.026 142.087L307.825 145.697H307.716L306.471 142.087L303.128 132.626H300.572ZM326.94 143.096H321.762L322.593 140.406C322.898 139.419 323.204 138.433 323.466 137.447C323.75 136.482 324.034 135.474 324.297 134.442H324.384C324.668 135.474 324.952 136.482 325.236 137.447C325.52 138.433 325.804 139.419 326.132 140.406L326.94 143.096ZM327.486 144.89L329.103 150.27H331.44L325.629 132.626H323.161L317.35 150.27H319.578L321.216 144.89H327.486ZM333.887 132.626V150.27H335.962V141.034C335.962 140.114 335.918 139.173 335.853 138.254C335.809 137.334 335.744 136.415 335.656 135.518H335.765L337.622 139.15L343.87 150.27H346.12V132.626H344.045V141.751C344.045 142.67 344.089 143.612 344.154 144.576C344.198 145.54 344.263 146.459 344.307 147.356H344.22L342.341 143.702L336.137 132.626H333.887ZM349.856 141.437C349.856 142.872 350.031 144.172 350.402 145.316C350.795 146.437 351.319 147.401 351.975 148.185C352.652 148.97 353.46 149.553 354.378 149.979C355.295 150.383 356.278 150.584 357.371 150.584C358.463 150.584 359.446 150.36 360.298 149.912C361.172 149.463 361.936 148.836 362.614 148.029L361.39 146.661C360.822 147.289 360.232 147.782 359.621 148.118C358.987 148.455 358.266 148.634 357.414 148.634C356.606 148.634 355.863 148.455 355.208 148.118C354.553 147.782 354.007 147.289 353.548 146.661C353.089 146.033 352.739 145.271 352.477 144.397C352.237 143.5 352.106 142.513 352.106 141.392C352.106 140.294 352.237 139.307 352.499 138.433C352.761 137.559 353.133 136.796 353.591 136.191C354.072 135.563 354.64 135.092 355.295 134.756C355.973 134.42 356.715 134.263 357.524 134.263C358.266 134.263 358.9 134.42 359.446 134.711C360.014 135.003 360.516 135.406 360.953 135.9L362.199 134.487C361.696 133.904 361.041 133.389 360.254 132.963C359.468 132.514 358.55 132.29 357.502 132.29C356.41 132.29 355.383 132.514 354.443 132.94C353.504 133.344 352.696 133.949 352.019 134.756C351.341 135.541 350.817 136.505 350.424 137.626C350.031 138.747 349.856 140.025 349.856 141.437ZM365.803 132.626V150.27H375.983V148.365H367.988V141.953H374.519V140.047H367.988V134.51H375.721V132.626H365.803Z" fill="white"/>
</svg>
