<svg width="103" height="103" viewBox="0 0 103 103" fill="none" xmlns="http://www.w3.org/2000/svg">
<g filter="url(#filter0_f_1033_6645)">
<path d="M64.6189 29.4242V34.871C64.6189 45.2852 56.1529 53.741 45.7489 53.741C35.3449 53.741 26.8789 45.2852 26.8789 34.871V29.4242C26.8789 19.0202 35.3449 10.5542 45.7489 10.5542C56.1529 10.5542 64.6189 19.0202 64.6189 29.4242Z" fill="#F2851C"/>
</g>
<g filter="url(#filter1_f_1033_6645)">
<path d="M64.6189 29.4242V34.871C64.6189 45.2852 56.1529 53.741 45.7489 53.741C35.3449 53.741 26.8789 45.2852 26.8789 34.871V29.4242C26.8789 19.0202 35.3449 10.5542 45.7489 10.5542C56.1529 10.5542 64.6189 19.0202 64.6189 29.4242Z" fill="#F2851C"/>
</g>
<path d="M64.6189 29.4242V34.871C64.6189 45.2852 56.1529 53.741 45.7489 53.741C35.3449 53.741 26.8789 45.2852 26.8789 34.871V29.4242C26.8789 19.0202 35.3449 10.5542 45.7489 10.5542C56.1529 10.5542 64.6189 19.0202 64.6189 29.4242Z" fill="url(#paint0_linear_1033_6645)"/>
<g filter="url(#filter2_f_1033_6645)">
<path d="M51.7158 80.1058L69.6357 65.1246C69.6357 63.0208 69.6357 63.7221 69.6357 62.7705C66.3783 59.7058 62.9608 56.8443 58.6186 55.4336C54.8956 57.7674 50.479 59.1138 45.7462 59.1138C41.0236 59.1138 36.6172 57.7776 32.9044 55.453C23.2042 58.6262 16.207 67.593 16.207 78.1459V91.7721C16.207 93.4276 17.5738 94.6408 19.267 94.6408H69.0558C67.2708 93.3658 51.7158 80.1058 51.7158 80.1058Z" fill="#F2851C"/>
</g>
<g filter="url(#filter3_f_1033_6645)">
<path d="M51.7158 80.1058L69.6357 65.1246C69.6357 63.0208 69.6357 63.7221 69.6357 62.7705C66.3783 59.7058 62.9608 56.8443 58.6186 55.4336C54.8956 57.7674 50.479 59.1138 45.7462 59.1138C41.0236 59.1138 36.6172 57.7776 32.9044 55.453C23.2042 58.6262 16.207 67.593 16.207 78.1459V91.7721C16.207 93.4276 17.5738 94.6408 19.267 94.6408H69.0558C67.2708 93.3658 51.7158 80.1058 51.7158 80.1058Z" fill="#F2851C"/>
</g>
<path d="M51.7158 80.1058L69.6357 65.1246C69.6357 63.0208 69.6357 63.7221 69.6357 62.7705C66.3783 59.7058 62.9608 56.8443 58.6186 55.4336C54.8956 57.7674 50.479 59.1138 45.7462 59.1138C41.0236 59.1138 36.6172 57.7776 32.9044 55.453C23.2042 58.6262 16.207 67.593 16.207 78.1459V91.7721C16.207 93.4276 17.5738 94.6408 19.267 94.6408H69.0558C67.2708 93.3658 51.7158 80.1058 51.7158 80.1058Z" fill="url(#paint1_linear_1033_6645)"/>
<g filter="url(#filter4_f_1033_6645)">
<path d="M59.6702 80.9623L74.2735 93.1901C74.9416 93.749 75.9555 93.2717 75.9555 92.3986V86.6631H90.9097C92.0429 86.6631 92.9609 85.74 92.9609 84.6017V75.7389C92.9609 74.6006 92.0429 73.6775 90.9097 73.6775H75.9555V67.942C75.9555 67.0679 74.9416 66.5905 74.2735 67.1505L59.6702 79.3783C59.1775 79.7914 59.1775 80.5502 59.6702 80.9623Z" fill="#F2851C"/>
</g>
<g filter="url(#filter5_f_1033_6645)">
<path d="M59.6702 80.9623L74.2735 93.1901C74.9416 93.749 75.9555 93.2717 75.9555 92.3986V86.6631H90.9097C92.0429 86.6631 92.9609 85.74 92.9609 84.6017V75.7389C92.9609 74.6006 92.0429 73.6775 90.9097 73.6775H75.9555V67.942C75.9555 67.0679 74.9416 66.5905 74.2735 67.1505L59.6702 79.3783C59.1775 79.7914 59.1775 80.5502 59.6702 80.9623Z" fill="#F2851C"/>
</g>
<path d="M59.6702 80.9623L74.2735 93.1901C74.9416 93.749 75.9555 93.2717 75.9555 92.3986V86.6631H90.9097C92.0429 86.6631 92.9609 85.74 92.9609 84.6017V75.7389C92.9609 74.6006 92.0429 73.6775 90.9097 73.6775H75.9555V67.942C75.9555 67.0679 74.9416 66.5905 74.2735 67.1505L59.6702 79.3783C59.1775 79.7914 59.1775 80.5502 59.6702 80.9623Z" fill="url(#paint2_linear_1033_6645)"/>
<defs>
<filter id="filter0_f_1033_6645" x="22.3456" y="6.02087" width="46.8049" height="52.2537" filterUnits="userSpaceOnUse" color-interpolation-filters="sRGB">
<feFlood flood-opacity="0" result="BackgroundImageFix"/>
<feBlend mode="normal" in="SourceGraphic" in2="BackgroundImageFix" result="shape"/>
<feGaussianBlur stdDeviation="2.26667" result="effect1_foregroundBlur_1033_6645"/>
</filter>
<filter id="filter1_f_1033_6645" x="22.3456" y="6.02087" width="46.8049" height="52.2537" filterUnits="userSpaceOnUse" color-interpolation-filters="sRGB">
<feFlood flood-opacity="0" result="BackgroundImageFix"/>
<feBlend mode="normal" in="SourceGraphic" in2="BackgroundImageFix" result="shape"/>
<feGaussianBlur stdDeviation="2.26667" result="effect1_foregroundBlur_1033_6645"/>
</filter>
<filter id="filter2_f_1033_6645" x="11.6737" y="50.9003" width="62.4964" height="48.2737" filterUnits="userSpaceOnUse" color-interpolation-filters="sRGB">
<feFlood flood-opacity="0" result="BackgroundImageFix"/>
<feBlend mode="normal" in="SourceGraphic" in2="BackgroundImageFix" result="shape"/>
<feGaussianBlur stdDeviation="2.26667" result="effect1_foregroundBlur_1033_6645"/>
</filter>
<filter id="filter3_f_1033_6645" x="11.6737" y="50.9003" width="62.4964" height="48.2737" filterUnits="userSpaceOnUse" color-interpolation-filters="sRGB">
<feFlood flood-opacity="0" result="BackgroundImageFix"/>
<feBlend mode="normal" in="SourceGraphic" in2="BackgroundImageFix" result="shape"/>
<feGaussianBlur stdDeviation="2.26667" result="effect1_foregroundBlur_1033_6645"/>
</filter>
<filter id="filter4_f_1033_6645" x="54.7674" y="62.3758" width="42.7268" height="35.5882" filterUnits="userSpaceOnUse" color-interpolation-filters="sRGB">
<feFlood flood-opacity="0" result="BackgroundImageFix"/>
<feBlend mode="normal" in="SourceGraphic" in2="BackgroundImageFix" result="shape"/>
<feGaussianBlur stdDeviation="2.26667" result="effect1_foregroundBlur_1033_6645"/>
</filter>
<filter id="filter5_f_1033_6645" x="54.7674" y="62.3758" width="42.7268" height="35.5882" filterUnits="userSpaceOnUse" color-interpolation-filters="sRGB">
<feFlood flood-opacity="0" result="BackgroundImageFix"/>
<feBlend mode="normal" in="SourceGraphic" in2="BackgroundImageFix" result="shape"/>
<feGaussianBlur stdDeviation="2.26667" result="effect1_foregroundBlur_1033_6645"/>
</filter>
<linearGradient id="paint0_linear_1033_6645" x1="45.7489" y1="10.5542" x2="45.7489" y2="53.741" gradientUnits="userSpaceOnUse">
<stop stop-color="#F8B672"/>
<stop offset="1" stop-color="#F2851C"/>
</linearGradient>
<linearGradient id="paint1_linear_1033_6645" x1="42.9213" y1="55.4336" x2="42.9213" y2="94.6408" gradientUnits="userSpaceOnUse">
<stop stop-color="#F8B672"/>
<stop offset="1" stop-color="#F2851C"/>
</linearGradient>
<linearGradient id="paint2_linear_1033_6645" x1="76.1308" y1="93.4307" x2="76.1308" y2="66.9093" gradientUnits="userSpaceOnUse">
<stop stop-color="#F8B672"/>
<stop offset="1" stop-color="#F2851C"/>
</linearGradient>
</defs>
</svg>
