<svg width="103" height="103" viewBox="0 0 103 103" fill="none" xmlns="http://www.w3.org/2000/svg">
<g filter="url(#filter0_f_1033_6659)">
<path d="M64.822 28.5316V33.9784C64.822 44.3926 56.356 52.8484 45.952 52.8484C35.548 52.8484 27.082 44.3926 27.082 33.9784V28.5316C27.082 18.1276 35.548 9.66162 45.952 9.66162C56.356 9.66162 64.822 18.1276 64.822 28.5316Z" fill="#F2851C"/>
</g>
<g filter="url(#filter1_f_1033_6659)">
<path d="M64.822 28.5316V33.9784C64.822 44.3926 56.356 52.8484 45.952 52.8484C35.548 52.8484 27.082 44.3926 27.082 33.9784V28.5316C27.082 18.1276 35.548 9.66162 45.952 9.66162C56.356 9.66162 64.822 18.1276 64.822 28.5316Z" fill="#F2851C"/>
</g>
<path d="M64.822 28.5316V33.9784C64.822 44.3926 56.356 52.8484 45.952 52.8484C35.548 52.8484 27.082 44.3926 27.082 33.9784V28.5316C27.082 18.1276 35.548 9.66162 45.952 9.66162C56.356 9.66162 64.822 18.1276 64.822 28.5316Z" fill="url(#paint0_linear_1033_6659)"/>
<g filter="url(#filter2_f_1033_6659)">
<path d="M49.0502 84.345V75.4822C49.0502 72.0958 51.8011 69.3408 55.1814 69.3408H66.0556V67.6853C66.0556 65.3281 67.6662 63.3585 69.8388 62.77C66.9593 59.4182 63.1639 56.8438 58.8218 55.4331C55.0988 57.7669 50.6822 59.1133 45.9494 59.1133C41.2268 59.1133 36.8204 57.7771 33.1076 55.4525C23.4074 58.6257 16.4102 67.5925 16.4102 78.1454V87.1225C16.4102 88.7779 17.777 90.1141 19.4702 90.1141H53.0985C50.7413 89.2573 49.0502 86.999 49.0502 84.345Z" fill="#F2851C"/>
</g>
<g filter="url(#filter3_f_1033_6659)">
<path d="M49.0502 84.345V75.4822C49.0502 72.0958 51.8011 69.3408 55.1814 69.3408H66.0556V67.6853C66.0556 65.3281 67.6662 63.3585 69.8388 62.77C66.9593 59.4182 63.1639 56.8438 58.8218 55.4331C55.0988 57.7669 50.6822 59.1133 45.9494 59.1133C41.2268 59.1133 36.8204 57.7771 33.1076 55.4525C23.4074 58.6257 16.4102 67.5925 16.4102 78.1454V87.1225C16.4102 88.7779 17.777 90.1141 19.4702 90.1141H53.0985C50.7413 89.2573 49.0502 86.999 49.0502 84.345Z" fill="#F2851C"/>
</g>
<path d="M49.0502 84.345V75.4822C49.0502 72.0958 51.8011 69.3408 55.1814 69.3408H66.0556V67.6853C66.0556 65.3281 67.6662 63.3585 69.8388 62.77C66.9593 59.4182 63.1639 56.8438 58.8218 55.4331C55.0988 57.7669 50.6822 59.1133 45.9494 59.1133C41.2268 59.1133 36.8204 57.7771 33.1076 55.4525C23.4074 58.6257 16.4102 67.5925 16.4102 78.1454V87.1225C16.4102 88.7779 17.777 90.1141 19.4702 90.1141H53.0985C50.7413 89.2573 49.0502 86.999 49.0502 84.345Z" fill="url(#paint1_linear_1033_6659)"/>
<g filter="url(#filter4_f_1033_6659)">
<path d="M86.6775 78.4849L72.0741 66.2572C71.406 65.6982 70.3922 66.1756 70.3922 67.0487V72.7842H55.4379C54.3047 72.7842 53.3867 73.7073 53.3867 74.8456L53.3867 83.7084C53.3867 84.8467 54.3047 85.7698 55.4379 85.7698H70.3922V91.5052C70.3922 92.3794 71.406 92.8567 72.0741 92.2968L86.6775 80.069C87.1701 79.6559 87.1701 78.897 86.6775 78.4849Z" fill="#F2851C"/>
</g>
<g filter="url(#filter5_f_1033_6659)">
<path d="M86.6775 78.4849L72.0741 66.2572C71.406 65.6982 70.3922 66.1756 70.3922 67.0487V72.7842H55.4379C54.3047 72.7842 53.3867 73.7073 53.3867 74.8456L53.3867 83.7084C53.3867 84.8467 54.3047 85.7698 55.4379 85.7698H70.3922V91.5052C70.3922 92.3794 71.406 92.8567 72.0741 92.2968L86.6775 80.069C87.1701 79.6559 87.1701 78.897 86.6775 78.4849Z" fill="#F2851C"/>
</g>
<path d="M86.6775 78.4849L72.0741 66.2572C71.406 65.6982 70.3922 66.1756 70.3922 67.0487V72.7842H55.4379C54.3047 72.7842 53.3867 73.7073 53.3867 74.8456L53.3867 83.7084C53.3867 84.8467 54.3047 85.7698 55.4379 85.7698H70.3922V91.5052C70.3922 92.3794 71.406 92.8567 72.0741 92.2968L86.6775 80.069C87.1701 79.6559 87.1701 78.897 86.6775 78.4849Z" fill="url(#paint2_linear_1033_6659)"/>
<defs>
<filter id="filter0_f_1033_6659" x="22.5487" y="5.12829" width="46.8049" height="52.2537" filterUnits="userSpaceOnUse" color-interpolation-filters="sRGB">
<feFlood flood-opacity="0" result="BackgroundImageFix"/>
<feBlend mode="normal" in="SourceGraphic" in2="BackgroundImageFix" result="shape"/>
<feGaussianBlur stdDeviation="2.26667" result="effect1_foregroundBlur_1033_6659"/>
</filter>
<filter id="filter1_f_1033_6659" x="22.5487" y="5.12829" width="46.8049" height="52.2537" filterUnits="userSpaceOnUse" color-interpolation-filters="sRGB">
<feFlood flood-opacity="0" result="BackgroundImageFix"/>
<feBlend mode="normal" in="SourceGraphic" in2="BackgroundImageFix" result="shape"/>
<feGaussianBlur stdDeviation="2.26667" result="effect1_foregroundBlur_1033_6659"/>
</filter>
<filter id="filter2_f_1033_6659" x="11.8768" y="50.8998" width="62.4964" height="43.7478" filterUnits="userSpaceOnUse" color-interpolation-filters="sRGB">
<feFlood flood-opacity="0" result="BackgroundImageFix"/>
<feBlend mode="normal" in="SourceGraphic" in2="BackgroundImageFix" result="shape"/>
<feGaussianBlur stdDeviation="2.26667" result="effect1_foregroundBlur_1033_6659"/>
</filter>
<filter id="filter3_f_1033_6659" x="11.8768" y="50.8998" width="62.4964" height="43.7478" filterUnits="userSpaceOnUse" color-interpolation-filters="sRGB">
<feFlood flood-opacity="0" result="BackgroundImageFix"/>
<feBlend mode="normal" in="SourceGraphic" in2="BackgroundImageFix" result="shape"/>
<feGaussianBlur stdDeviation="2.26667" result="effect1_foregroundBlur_1033_6659"/>
</filter>
<filter id="filter4_f_1033_6659" x="48.8534" y="61.4833" width="42.7268" height="35.5882" filterUnits="userSpaceOnUse" color-interpolation-filters="sRGB">
<feFlood flood-opacity="0" result="BackgroundImageFix"/>
<feBlend mode="normal" in="SourceGraphic" in2="BackgroundImageFix" result="shape"/>
<feGaussianBlur stdDeviation="2.26667" result="effect1_foregroundBlur_1033_6659"/>
</filter>
<filter id="filter5_f_1033_6659" x="48.8534" y="61.4833" width="42.7268" height="35.5882" filterUnits="userSpaceOnUse" color-interpolation-filters="sRGB">
<feFlood flood-opacity="0" result="BackgroundImageFix"/>
<feBlend mode="normal" in="SourceGraphic" in2="BackgroundImageFix" result="shape"/>
<feGaussianBlur stdDeviation="2.26667" result="effect1_foregroundBlur_1033_6659"/>
</filter>
<linearGradient id="paint0_linear_1033_6659" x1="45.952" y1="9.66162" x2="45.952" y2="52.8484" gradientUnits="userSpaceOnUse">
<stop stop-color="#F8B672"/>
<stop offset="1" stop-color="#F2851C"/>
</linearGradient>
<linearGradient id="paint1_linear_1033_6659" x1="43.1245" y1="55.4331" x2="43.1245" y2="90.1141" gradientUnits="userSpaceOnUse">
<stop stop-color="#F8B672"/>
<stop offset="1" stop-color="#F2851C"/>
</linearGradient>
<linearGradient id="paint2_linear_1033_6659" x1="70.2168" y1="66.0166" x2="70.2168" y2="92.538" gradientUnits="userSpaceOnUse">
<stop stop-color="#F8B672"/>
<stop offset="1" stop-color="#F2851C"/>
</linearGradient>
</defs>
</svg>
