<svg width="161" height="160" viewBox="0 0 161 160" fill="none" xmlns="http://www.w3.org/2000/svg">
<g clip-path="url(#clip0_430_4556)">
<rect x="0.226562" width="160" height="160" rx="50.5263" fill="#F7F7F7"/>
<path d="M55.6661 76.6667C55.6661 61.9391 67.6042 50 82.3305 50C97.0569 50 108.995 61.9391 108.995 76.6667C108.995 80.5001 108.186 84.1446 106.73 87.4388L109 103.331L95.3819 99.926C91.524 102.096 87.0718 103.333 82.3305 103.333M49.0032 93.3333C49.0032 95.7292 49.5086 98.007 50.4187 100.066L49 109.998L57.5105 107.87C59.9214 109.227 62.7038 110 65.6668 110C74.8699 110 82.3305 102.538 82.3305 93.3333C82.3305 84.1286 74.8699 76.6667 65.6668 76.6667C56.4637 76.6667 49.0032 84.1286 49.0032 93.3333Z" stroke="#F2851C" stroke-width="6.66667" stroke-linecap="round" stroke-linejoin="round"/>
</g>
<defs>
<clipPath id="clip0_430_4556">
<rect width="160" height="160" fill="white" transform="translate(0.226562)"/>
</clipPath>
</defs>
</svg>
