<svg width="201" height="206" viewBox="0 0 201 206" fill="none" xmlns="http://www.w3.org/2000/svg">
<path d="M9.29135 131.26C12.8208 130.597 15.1449 127.199 14.4825 123.67C13.8201 120.141 10.4219 117.816 6.89251 118.479C3.3631 119.141 1.03895 122.539 1.70138 126.069C2.3638 129.598 5.76195 131.922 9.29135 131.26Z" stroke="#689EFB" stroke-width="2.38435" stroke-linecap="round" stroke-linejoin="round"/>
<path d="M185.982 107.615C185.893 108.18 185.638 108.706 185.25 109.126C184.862 109.546 184.358 109.841 183.802 109.975C183.246 110.109 182.663 110.074 182.126 109.876C181.589 109.678 181.124 109.326 180.788 108.863C180.451 108.401 180.26 107.849 180.238 107.277C180.215 106.706 180.363 106.141 180.662 105.653C180.96 105.165 181.397 104.777 181.917 104.538C182.436 104.299 183.015 104.219 183.579 104.308C184.336 104.429 185.014 104.845 185.465 105.465C185.915 106.085 186.101 106.858 185.982 107.615V107.615Z" stroke="#8DE2EF" stroke-width="2.38435" stroke-linecap="round" stroke-linejoin="round"/>
<path d="M55.6328 56.3421C51.1246 59.2768 45.1407 60.24 41.2676 55.8133C36.9213 50.8526 40.4024 43.8651 43.3119 43.9146C45.4821 43.9511 48.6492 46.505 45.9392 49.9823C43.2293 53.4596 37.3082 54.0977 33.3055 52.1537C29.3028 50.2097 28.3298 45.1919 28.4945 42.2984" stroke="#94C7D4" stroke-width="2.38435" stroke-linecap="round" stroke-linejoin="round"/>
<path d="M148.88 202.689C144.757 203.307 142.047 201.456 142.854 199.307C143.662 197.159 143.722 194.352 138.999 194.116C134.277 193.88 132.377 192.232 133.68 189.504C134.982 186.775 132.973 185.449 129.39 185.615" stroke="#FFA18C" stroke-width="2.38435" stroke-linecap="round" stroke-linejoin="round"/>
<g clip-path="url(#clip0_109_3639)">
<g filter="url(#filter0_f_109_3639)">
<path d="M101.762 167.213C96.5016 160.313 94.0259 151.345 94.0148 141.897C94.0215 131.677 96.938 120.781 102.985 111.005C109.025 101.24 118.276 92.6171 130.755 87.2757C137.67 84.3123 142.252 81.2 145.238 78.2032C147.504 75.9167 148.905 73.7235 149.811 71.4815C148.62 69.981 147.371 68.5093 146.03 67.0911C124.624 44.4328 90.9822 40.2936 65.0915 55.1906C64.1362 56.5621 63.2434 57.9559 62.4731 59.3875C60.0017 63.9762 58.5479 68.7896 58.5435 73.9929C58.5502 78.4344 59.5966 83.237 62.2749 88.6093C66.2669 96.6179 68.2617 106.022 68.273 115.402C68.2663 123.395 66.8104 131.39 63.6129 138.472C60.4249 145.534 55.3863 151.753 48.3018 155.566C48.2171 155.611 48.1281 155.651 48.0435 155.696C48.6759 156.424 49.3169 157.147 49.985 157.855C66.9882 175.849 91.6993 182.166 114.117 176.55C113.304 176.237 112.496 175.916 111.728 175.531C107.74 173.538 104.39 170.651 101.762 167.213Z" fill="#F2851C"/>
</g>
<g filter="url(#filter1_f_109_3639)">
<path d="M106.717 167.213C101.456 160.313 98.9805 151.345 98.9694 141.897C98.9761 131.677 101.893 120.781 107.94 111.005C113.98 101.24 123.231 92.6171 135.709 87.2757C142.625 84.3123 147.207 81.2 150.193 78.2032C152.459 75.9167 153.859 73.7235 154.765 71.4815C153.575 69.981 152.325 68.5093 150.985 67.0911C129.578 44.4328 95.9368 40.2936 70.0461 55.1906C69.0908 56.5621 68.198 57.9559 67.4277 59.3875C64.9563 63.9762 63.5025 68.7896 63.4981 73.9929C63.5048 78.4344 64.5512 83.237 67.2295 88.6093C71.2215 96.6179 73.2163 106.022 73.2276 115.402C73.2209 123.395 71.765 131.39 68.5675 138.472C65.3795 145.534 60.3409 151.753 53.2564 155.566C53.1717 155.611 53.0827 155.651 52.998 155.696C53.6305 156.424 54.2715 157.147 54.9396 157.855C71.9428 175.849 96.6539 182.166 119.072 176.55C118.259 176.237 117.451 175.916 116.683 175.531C112.695 173.538 109.345 170.651 106.717 167.213Z" fill="#F2851C"/>
</g>
<g filter="url(#filter2_f_109_3639)">
<path d="M105.067 165.562C99.8063 158.663 97.3306 149.695 97.3195 140.246C97.3262 130.026 100.243 119.13 106.29 109.354C112.33 99.589 121.581 90.9662 134.06 85.6249C140.975 82.6614 145.557 79.5491 148.543 76.5524C150.809 74.2658 152.21 72.0726 153.116 69.8307C151.925 68.3301 150.675 66.8585 149.335 65.4402C127.928 42.7819 94.2869 38.6428 68.3962 53.5397C67.4409 54.9113 66.5481 56.305 65.7778 57.7366C63.3064 62.3253 61.8526 67.1387 61.8482 72.342C61.8549 76.7836 62.9013 81.5861 65.5796 86.9585C69.5716 94.967 71.5664 104.371 71.5777 113.751C71.571 121.744 70.1151 129.739 66.9176 136.821C63.7296 143.883 58.691 150.102 51.6065 153.915C51.5218 153.96 51.4328 154 51.3481 154.045C51.9806 154.773 52.6216 155.496 53.2897 156.205C70.2929 174.198 95.004 180.515 117.422 174.9C116.609 174.586 115.801 174.265 115.033 173.88C111.045 171.887 107.695 169 105.067 165.562Z" fill="url(#paint0_linear_109_3639)"/>
</g>
<g filter="url(#filter3_f_109_3639)">
<path d="M160.757 80.1077C158.664 83.06 155.91 85.874 152.397 88.4566C148.862 91.0639 144.569 93.4726 139.368 95.7037C128.922 100.188 121.39 107.248 116.38 115.316C111.38 123.376 108.977 132.468 108.984 140.684C108.98 146.383 110.137 151.633 112.213 155.808C114.299 159.996 117.202 163.082 120.902 164.938C123.38 166.176 126.268 166.898 129.752 166.902C133.143 166.902 137.148 166.136 141.688 164.435C143.823 162.857 145.894 161.153 147.871 159.283C170.026 138.351 174.483 105.743 160.757 80.1077Z" fill="#F2851C"/>
</g>
<path d="M162.407 81.7588C160.314 84.7111 157.56 87.5252 154.047 90.1077C150.512 92.7151 146.219 95.1237 141.018 97.3548C130.572 101.839 123.04 108.899 118.03 116.967C113.03 125.027 110.627 134.119 110.634 142.335C110.63 148.035 111.787 153.284 113.862 157.459C115.949 161.647 118.852 164.733 122.552 166.589C125.03 167.827 127.918 168.549 131.402 168.553C134.793 168.553 138.798 167.787 143.338 166.086C145.473 164.508 147.544 162.805 149.521 160.934C171.676 140.002 176.133 107.394 162.407 81.7588Z" fill="url(#paint1_linear_109_3639)"/>
<g filter="url(#filter4_f_109_3639)">
<path d="M61.1467 112.498C61.5037 104.643 60.1038 96.6047 57.2347 90.2027C54.1996 83.4124 52.976 76.8377 53.2506 70.7012C53.3289 68.9239 53.5694 67.2052 53.8803 65.5118C33.5686 86.569 29.7416 118.362 43.6965 143.432C44.2517 143.218 44.818 143.015 45.346 142.762C48.5501 141.212 51.2586 138.913 53.5394 135.956C58.104 130.068 60.7707 121.44 61.1467 112.498Z" fill="#F2851C"/>
</g>
<path d="M57.8444 114.077C58.2015 106.221 56.8016 98.1833 53.9325 91.7813C50.8974 84.991 49.6738 78.4163 49.9484 72.2798C50.0267 70.5026 50.2671 68.7838 50.5781 67.0904C30.2664 88.1476 26.4393 119.941 40.3943 145.01C40.9495 144.796 41.5158 144.594 42.0438 144.341C45.2478 142.79 47.9563 140.492 50.2372 137.534C54.8018 131.647 57.4685 123.019 57.8444 114.077Z" fill="url(#paint2_linear_109_3639)"/>
</g>
<path d="M179.06 121.919C178.977 121.559 178.823 121.22 178.606 120.922C178.389 120.624 178.114 120.373 177.797 120.183C177.481 119.994 177.129 119.871 176.764 119.822C176.398 119.772 176.027 119.797 175.671 119.894C174.949 120.131 174.346 120.636 173.988 121.306C173.629 121.976 173.542 122.758 173.745 123.49C173.827 123.849 173.982 124.189 174.198 124.487C174.415 124.786 174.69 125.037 175.007 125.227C175.324 125.416 175.676 125.539 176.041 125.588C176.407 125.637 176.779 125.612 177.135 125.514C177.856 125.277 178.459 124.772 178.818 124.102C179.176 123.433 179.263 122.651 179.06 121.919Z" fill="#F89F93"/>
<path d="M176.68 122.715C179.537 122.497 179.924 149.971 179.924 149.971C179.924 149.971 178.057 150.882 177.145 150.66C176.234 150.437 175.802 146.722 175.802 146.722L175.674 150.61C175.674 150.61 172.549 150.705 171.468 149.893C171.468 149.893 172.165 123.053 176.68 122.715Z" fill="#F89F93"/>
<g filter="url(#filter5_f_109_3639)">
<path d="M155.654 55.4072C155.654 55.4072 158.653 71.7358 155.081 71.8643C151.508 71.9929 143.744 65.4858 129.717 68.1673C115.691 70.8489 98.7169 75.9576 86.2372 57.5013C73.7574 39.0451 97.0297 30.886 97.0297 30.886L155.655 55.4229L155.654 55.4072Z" fill="#152946"/>
</g>
<path d="M155.651 55.4072C155.651 55.4072 158.651 71.7358 155.078 71.8643C151.506 71.9929 143.742 65.4858 129.715 68.1673C115.688 70.8489 98.7144 75.9576 86.2347 57.5013C73.755 39.0451 97.0273 30.886 97.0273 30.886L155.653 55.4229L155.651 55.4072Z" fill="#152946"/>
<path d="M119.796 59.9167L198.97 64.0848L200.507 60.5228C170.293 39.5648 153.353 27.8145 123.139 6.85661L46.3898 0.173597L45.0128 3.3605L119.796 59.9167Z" fill="black"/>
<path d="M177.715 120.695L178.127 64.6619C178.412 62.1671 178.017 59.6417 176.983 57.3532C175.949 55.0647 174.316 53.0985 172.256 51.6628L137.876 27.7507C137.697 27.6237 137.496 27.5336 137.282 27.4855C137.068 27.4374 136.847 27.4324 136.631 27.4708C136.415 27.5092 136.209 27.5902 136.025 27.7091C135.841 27.8279 135.683 27.9822 135.559 28.163C135.496 28.2525 135.451 28.3538 135.427 28.4608C135.404 28.5679 135.401 28.6786 135.421 28.7865C135.441 28.8943 135.481 28.9971 135.541 29.089C135.601 29.1809 135.679 29.26 135.769 29.3215L172.26 54.689C173.638 55.6462 174.731 56.9591 175.422 58.4881C176.113 60.017 176.377 61.7046 176.185 63.3715L175.707 121.342L177.715 120.695Z" fill="#F89F93"/>
<defs>
<filter id="filter0_f_109_3639" x="41.4374" y="39.8099" width="114.98" height="145.332" filterUnits="userSpaceOnUse" color-interpolation-filters="sRGB">
<feFlood flood-opacity="0" result="BackgroundImageFix"/>
<feBlend mode="normal" in="SourceGraphic" in2="BackgroundImageFix" result="shape"/>
<feGaussianBlur stdDeviation="3.30304" result="effect1_foregroundBlur_109_3639"/>
</filter>
<filter id="filter1_f_109_3639" x="46.392" y="39.8099" width="114.98" height="145.332" filterUnits="userSpaceOnUse" color-interpolation-filters="sRGB">
<feFlood flood-opacity="0" result="BackgroundImageFix"/>
<feBlend mode="normal" in="SourceGraphic" in2="BackgroundImageFix" result="shape"/>
<feGaussianBlur stdDeviation="3.30304" result="effect1_foregroundBlur_109_3639"/>
</filter>
<filter id="filter2_f_109_3639" x="51.183" y="44.6" width="102.098" height="132.45" filterUnits="userSpaceOnUse" color-interpolation-filters="sRGB">
<feFlood flood-opacity="0" result="BackgroundImageFix"/>
<feBlend mode="normal" in="SourceGraphic" in2="BackgroundImageFix" result="shape"/>
<feGaussianBlur stdDeviation="0.082576" result="effect1_foregroundBlur_109_3639"/>
</filter>
<filter id="filter3_f_109_3639" x="102.378" y="73.5016" width="72.7825" height="100.006" filterUnits="userSpaceOnUse" color-interpolation-filters="sRGB">
<feFlood flood-opacity="0" result="BackgroundImageFix"/>
<feBlend mode="normal" in="SourceGraphic" in2="BackgroundImageFix" result="shape"/>
<feGaussianBlur stdDeviation="3.30304" result="effect1_foregroundBlur_109_3639"/>
</filter>
<filter id="filter4_f_109_3639" x="28.7968" y="58.9056" width="39.0105" height="91.1321" filterUnits="userSpaceOnUse" color-interpolation-filters="sRGB">
<feFlood flood-opacity="0" result="BackgroundImageFix"/>
<feBlend mode="normal" in="SourceGraphic" in2="BackgroundImageFix" result="shape"/>
<feGaussianBlur stdDeviation="3.30304" result="effect1_foregroundBlur_109_3639"/>
</filter>
<filter id="filter5_f_109_3639" x="57.7853" y="6.1132" width="123.819" height="90.5258" filterUnits="userSpaceOnUse" color-interpolation-filters="sRGB">
<feFlood flood-opacity="0" result="BackgroundImageFix"/>
<feBlend mode="normal" in="SourceGraphic" in2="BackgroundImageFix" result="shape"/>
<feGaussianBlur stdDeviation="12.3864" result="effect1_foregroundBlur_109_3639"/>
</filter>
<linearGradient id="paint0_linear_109_3639" x1="102.232" y1="44.7651" x2="102.232" y2="176.885" gradientUnits="userSpaceOnUse">
<stop stop-color="#F8B672"/>
<stop offset="1" stop-color="#F2851C"/>
</linearGradient>
<linearGradient id="paint1_linear_109_3639" x1="140.419" y1="81.7588" x2="140.419" y2="168.553" gradientUnits="userSpaceOnUse">
<stop stop-color="#F8B672"/>
<stop offset="1" stop-color="#F2851C"/>
</linearGradient>
<linearGradient id="paint2_linear_109_3639" x1="46.992" y1="66.9325" x2="43.5476" y2="145.149" gradientUnits="userSpaceOnUse">
<stop stop-color="#F8B672"/>
<stop offset="1" stop-color="#F2851C"/>
</linearGradient>
<clipPath id="clip0_109_3639">
<rect width="148.637" height="148.637" fill="white" transform="translate(26.1841 37.333)"/>
</clipPath>
</defs>
</svg>
