<svg width="119" height="119" viewBox="0 0 119 119" fill="none" xmlns="http://www.w3.org/2000/svg">
<circle cx="59.1721" cy="59.1717" r="42.2063" transform="rotate(52.5462 59.1721 59.1717)" fill="#2D63E3"/>
<path d="M62.719 74.8939H57.7343V69.8967H62.719V74.8939ZM62.719 67.3981H57.7343C57.7343 59.2776 65.2114 59.9022 65.2114 54.905C65.2114 52.1565 62.9682 49.9078 60.2267 49.9078C57.4851 49.9078 55.2419 52.1565 55.2419 54.905H50.2572C50.2572 49.3831 54.7186 44.9105 60.2267 44.9105C65.7348 44.9105 70.1961 49.3831 70.1961 54.905C70.1961 61.1516 62.719 61.7762 62.719 67.3981ZM85.1502 59.9022C85.1502 72.8451 75.3054 83.5142 62.719 84.7635V79.7413C72.5638 78.5169 80.1655 70.0966 80.1655 59.9022C80.1655 49.7079 72.5638 41.2876 62.719 40.0632V35.041C75.3054 36.2903 85.1502 46.9594 85.1502 59.9022ZM57.7343 35.041V40.0632C54.0955 40.513 50.7557 41.9622 47.9892 44.111L44.4501 40.563C48.1387 37.5396 52.7496 35.5407 57.7343 35.041ZM40.4374 57.4036H35.4277C35.9262 52.4064 37.9201 47.784 40.9358 44.086L44.475 47.659C42.3316 50.4075 40.886 53.7556 40.4374 57.4036ZM57.7343 79.7413V84.7635C52.7496 84.2638 48.1387 82.2898 44.4501 79.2415L47.9892 75.6935C50.7557 77.8423 54.0955 79.2915 57.7343 79.7413ZM35.4277 62.4009H40.4374C40.886 66.0488 42.3316 69.397 44.475 72.1704L40.9358 75.7185C37.9201 72.0205 35.9262 67.3981 35.4277 62.4009Z" fill="white"/>
</svg>
