<svg width="400" height="364" viewBox="0 0 400 364" fill="none" xmlns="http://www.w3.org/2000/svg">
<path d="M218.099 182H400V364H218.099V182Z" fill="#444444"/>
<path d="M218.099 0H400V182H218.099V0Z" fill="#444444"/>
<path d="M236.471 0H381.992V91H236.471V0Z" fill="#444444"/>
<path fill-rule="evenodd" clip-rule="evenodd" d="M381.992 0H378.354V22.75C378.354 24.7603 379.983 26.39 381.992 26.39V0ZM381.992 64.61C379.983 64.61 378.354 66.2397 378.354 68.25V91H381.992V64.61ZM240.109 91V68.25C240.109 66.2397 238.48 64.61 236.471 64.61V91H240.109ZM236.471 26.39C238.48 26.39 240.109 24.7603 240.109 22.75V0H236.471V26.39Z" fill="#FFEB77"/>
<path d="M236.471 91H381.992V182H236.471V91Z" fill="#444444"/>
<path fill-rule="evenodd" clip-rule="evenodd" d="M381.992 91H378.354V113.75C378.354 115.76 379.983 117.39 381.992 117.39V91ZM381.992 155.61C379.983 155.61 378.354 157.24 378.354 159.25V182H381.992V155.61Z" fill="#FFEB77"/>
<path d="M236.471 182H381.992V273H236.471V182Z" fill="#444444"/>
<path fill-rule="evenodd" clip-rule="evenodd" d="M381.992 182H378.354V204.75C378.354 206.76 379.983 208.39 381.992 208.39V182ZM381.992 246.61C379.983 246.61 378.354 248.24 378.354 250.25V273H381.992V246.61Z" fill="#FFEB77"/>
<path d="M236.471 273H381.992V364H236.471V273Z" fill="#444444"/>
<path fill-rule="evenodd" clip-rule="evenodd" d="M381.992 273H378.354V295.75C378.354 297.76 379.983 299.39 381.992 299.39V273ZM381.992 337.61C379.983 337.61 378.354 339.24 378.354 341.25V364H381.992V337.61ZM240.109 364V341.25C240.109 339.24 238.48 337.61 236.471 337.61V364H240.109ZM236.471 299.39C238.48 299.39 240.109 297.76 240.109 295.75V273H236.471V299.39Z" fill="#FFEB77"/>
<path d="M0 182C0 121.691 48.8639 72.8 109.141 72.8H218.281V291.2H109.141C48.8639 291.2 0 242.309 0 182Z" fill="#444444"/>
<path d="M18.1901 182C18.1901 131.742 58.91 91 109.141 91H218.281V273H109.141C58.91 273 18.1901 232.258 18.1901 182Z" fill="#444444"/>
<path fill-rule="evenodd" clip-rule="evenodd" d="M126.421 273H109.141C101.804 273 94.6701 272.131 87.8365 270.49C88.2581 268.558 90.1494 267.312 92.0965 267.697C96.9173 268.651 101.883 269.209 106.959 269.333C107.684 269.351 108.411 269.36 109.141 269.36H122.783C124.792 269.36 126.421 270.99 126.421 273ZM180.991 273C180.991 270.99 179.363 269.36 177.353 269.36H150.068C148.059 269.36 146.43 270.99 146.43 273H180.991ZM201 273C201 270.99 202.629 269.36 204.638 269.36H218.281V273H201ZM218.281 94.64V91H201C201 93.0103 202.629 94.64 204.638 94.64H218.281ZM146.43 91C146.43 93.0103 148.059 94.64 150.068 94.64H177.353C179.363 94.64 180.991 93.0103 180.991 91H146.43ZM126.421 91C126.421 93.0103 124.792 94.64 122.783 94.64H109.141C108.12 94.64 107.104 94.6575 106.093 94.6922C101.318 94.8559 96.6429 95.403 92.0965 96.3029C90.1494 96.6883 88.2581 95.4416 87.8365 93.5102C94.6701 91.8692 101.804 91 109.141 91H126.421ZM31.5462 134.504C39.0642 122.234 49.4074 111.885 61.6699 104.363C62.7369 106.028 62.2803 108.247 60.6309 109.352C56.7622 111.944 53.1118 114.836 49.7134 117.997C47.9545 119.633 46.2632 121.34 44.644 123.114C41.6907 126.351 38.9774 129.81 36.5324 133.464C35.4281 135.114 33.2094 135.571 31.5462 134.504ZM20.6989 203.316C19.0588 196.478 18.1901 189.341 18.1901 182C18.1901 174.659 19.0588 167.522 20.6989 160.684C22.6292 161.106 23.8753 162.999 23.4901 164.947C22.5364 169.77 21.9792 174.738 21.8548 179.817C21.837 180.542 21.8281 181.27 21.8281 182C21.8281 183.492 21.8654 184.974 21.9392 186.447C22.1542 190.74 22.6786 194.949 23.4901 199.053C23.8753 201.001 22.6292 202.894 20.6989 203.316ZM61.6699 259.637C49.4074 252.115 39.0642 241.766 31.5462 229.496C33.2094 228.429 35.4281 228.886 36.5324 230.536C38.9232 234.109 41.5706 237.496 44.4481 240.67C47.1045 243.601 49.957 246.35 52.9849 248.897C55.4235 250.949 57.9758 252.869 60.6309 254.648C62.2804 255.753 62.7369 257.972 61.6699 259.637Z" fill="#FFEB77"/>
</svg>
