<svg width="40" height="40" viewBox="0 0 40 40" fill="none" xmlns="http://www.w3.org/2000/svg">
  <path 
    d="M32.5 1.25H7.5C4.04813 1.25 1.25 4.04813 1.25 7.5V32.5C1.25 35.9519 4.04813 38.75 7.5 38.75H32.5C35.9519 38.75 38.75 35.9519 38.75 32.5V7.5C38.75 4.04813 35.9519 1.25 32.5 1.25ZM14.5187 27.7281H11.4706L6.25 12.325H9.69625L13.0481 24.0188L16.4306 12.325H19.7825L14.5187 27.7281ZM32.1144 26.7313C31.0244 27.6606 29.4837 28.125 27.4925 28.125C25.46 28.125 23.8619 27.6675 22.6975 26.7519C21.5331 25.835 20.9506 24.5762 20.9506 22.9737H24.0306C24.1294 23.6769 24.3263 24.2031 24.6175 24.5513C25.1519 25.1863 26.0687 25.5019 27.3662 25.5019C28.1425 25.5019 28.7737 25.4181 29.2594 25.2513C30.1787 24.9313 30.6387 24.3356 30.6387 23.4644C30.6387 22.9562 30.4131 22.5625 29.9625 22.2837C29.5119 22.0112 28.7969 21.7712 27.8187 21.5625L26.1475 21.1975C24.5044 20.8344 23.3762 20.4406 22.7612 20.0156C21.7212 19.3056 21.2013 18.1937 21.2013 16.6819C21.2013 15.3025 21.7094 14.1569 22.7269 13.2438C23.745 12.3313 25.24 11.875 27.2131 11.875C28.86 11.875 30.265 12.305 31.4269 13.1656C32.59 14.0256 33.1994 15.275 33.2569 16.9119H30.1562C30.0987 15.9856 29.6838 15.3269 28.91 14.9369C28.395 14.6794 27.7537 14.5494 26.9887 14.5494C26.1369 14.5494 25.4569 14.7175 24.9475 15.0519C24.4394 15.3863 24.1856 15.8537 24.1856 16.4519C24.1856 17.0025 24.4356 17.4138 24.9375 17.6863C25.26 17.8669 25.9431 18.0794 26.9881 18.3231L29.6981 18.9612C30.8844 19.24 31.7756 19.6125 32.3675 20.0794C33.29 20.8031 33.75 21.8513 33.75 23.2244C33.75 24.6319 33.2056 25.8 32.1144 26.7313Z" 
    fill="white" 
    stroke="black" 
    stroke-width="2"
  />
</svg>
