<svg width="103" height="106" viewBox="0 0 103 106" fill="none" xmlns="http://www.w3.org/2000/svg">
<g clip-path="url(#clip0_506_4277)">
<g filter="url(#filter0_f_506_4277)">
<path d="M29.4393 25.9343C29.4393 43.9009 47.4059 46.897 47.4059 61.8675C47.4059 67.8564 41.417 76.8381 32.4353 76.8381C23.4536 76.8381 19.3812 68.6869 25.3668 53.7163C14.6987 57.8047 11.4727 64.8604 11.4727 70.8492C11.4727 85.823 26.4432 100.794 47.4059 100.794C68.3685 100.794 83.3391 91.8119 83.3391 73.8421C83.4732 47.2675 52.7176 38.388 44.4098 25.9311C38.421 16.9462 41.417 10.9574 47.4027 4.96851C35.4249 7.96454 29.4361 16.3489 29.4361 25.9311L29.4393 25.9343Z" fill="#F2851C"/>
</g>
<path d="M33.5428 23.1481C33.5428 42.1206 52.5153 45.2844 52.5153 61.0931C52.5153 67.4173 46.1912 76.9019 36.7066 76.9019C27.222 76.9019 20.8979 67.4139 27.2186 51.6052C17.7307 57.9293 14.5703 64.2535 14.5703 70.5777C14.5703 86.3898 30.379 102.199 52.5153 102.199C74.6516 102.199 90.4603 92.714 90.4603 73.7381C90.602 45.6756 58.1244 36.299 49.3516 23.1447C43.0274 13.6568 44.853 10.0854 51.1738 3.76123C39.9307 8.93561 33.5394 13.0261 33.5394 23.1447L33.5428 23.1481Z" fill="#F2851C"/>
<path d="M33.2713 24.6567C33.2713 42.6233 51.2379 45.6194 51.2379 60.59C51.2379 66.5788 45.249 75.5605 36.2673 75.5605C27.2856 75.5605 21.2967 66.5756 27.2824 51.605C18.2975 57.5939 15.3047 63.5828 15.3047 69.5717C15.3047 84.5454 30.2753 99.516 51.2379 99.516C72.2005 99.516 87.1711 90.5343 87.1711 72.5645C87.3052 45.9899 56.5496 37.1104 48.2419 24.6535C42.253 15.6687 45.249 9.67978 51.2347 3.69092C39.257 6.68695 33.2681 15.0714 33.2681 24.6535L33.2713 24.6567Z" fill="url(#paint0_linear_506_4277)"/>
<path d="M79.7892 77.6684C79.0396 77.6264 78.3411 78.048 78.0285 78.7306C74.9137 85.3159 71.4023 87.9813 65.1323 88.6046C64.1253 88.6532 63.3483 89.5087 63.3967 90.5152C63.445 91.5221 64.3005 92.2991 65.3075 92.2505C65.3686 92.2478 65.4295 92.2416 65.49 92.2327C72.7729 91.5087 77.8787 87.5894 81.3305 80.2921C81.7728 79.3862 81.3973 78.2932 80.4914 77.8509C80.2724 77.7439 80.0342 77.6821 79.7908 77.6686L79.7892 77.6684Z" fill="white"/>
<path d="M57.7899 88.6118C56.782 88.6118 55.9648 89.429 55.9648 90.4368C55.9648 91.4447 56.782 92.2619 57.7899 92.2619C58.7977 92.2619 59.6149 91.4447 59.6149 90.4368C59.6149 89.429 58.7977 88.6118 57.7899 88.6118Z" fill="white"/>
</g>
<defs>
<filter id="filter0_f_506_4277" x="6.36216" y="-0.141994" width="82.0882" height="106.046" filterUnits="userSpaceOnUse" color-interpolation-filters="sRGB">
<feFlood flood-opacity="0" result="BackgroundImageFix"/>
<feBlend mode="normal" in="SourceGraphic" in2="BackgroundImageFix" result="shape"/>
<feGaussianBlur stdDeviation="2.55525" result="effect1_foregroundBlur_506_4277"/>
</filter>
<linearGradient id="paint0_linear_506_4277" x1="51.2381" y1="3.69092" x2="51.2381" y2="99.516" gradientUnits="userSpaceOnUse">
<stop stop-color="#F8B672"/>
<stop offset="1" stop-color="#F2851C"/>
</linearGradient>
<clipPath id="clip0_506_4277">
<rect width="102.21" height="104.765" fill="white" transform="translate(0.136719 0.624512)"/>
</clipPath>
</defs>
</svg>
