<svg width="36" height="36" viewBox="0 0 36 36" fill="none" xmlns="http://www.w3.org/2000/svg">
<g opacity="0.6" clip-path="url(#clip0_483_4713)">
<g filter="url(#filter0_f_483_4713)">
<path d="M10.0644 8.69682C10.0644 14.8706 16.2382 15.9001 16.2382 21.0444C16.2382 23.1023 14.1803 26.1887 11.0939 26.1887C8.00758 26.1887 6.60819 23.3877 8.66502 18.2434C4.99916 19.6483 3.89062 22.0728 3.89062 24.1307C3.89062 29.2761 9.03489 34.4204 16.2382 34.4204C23.4415 34.4204 28.5857 31.334 28.5857 25.1591C28.6318 16.0274 18.0634 12.9762 15.2087 8.69572C13.1507 5.60829 14.1803 3.55036 16.2371 1.49243C12.1212 2.52194 10.0633 5.40304 10.0633 8.69572L10.0644 8.69682Z" fill="#F2851C"/>
</g>
<path d="M11.4765 7.73946C11.4765 14.2589 17.9959 15.346 17.9959 20.7783C17.9959 22.9515 15.8228 26.2106 12.5636 26.2106C9.30448 26.2106 7.13134 22.9503 9.30332 17.518C6.04302 19.6912 4.95703 21.8643 4.95703 24.0375C4.95703 29.4709 10.3893 34.9032 17.9959 34.9032C25.6025 34.9032 31.0348 31.6441 31.0348 25.1235C31.0835 15.4805 19.9233 12.2584 16.9087 7.7383C14.7356 4.478 15.3629 3.25078 17.5349 1.07764C13.6715 2.85569 11.4753 4.26127 11.4753 7.7383L11.4765 7.73946Z" fill="#F2851C"/>
<path d="M11.3847 8.25786C11.3847 14.4316 17.5585 15.4612 17.5585 20.6054C17.5585 22.6633 15.5006 25.7497 12.4142 25.7497C9.32789 25.7497 7.26996 22.6622 9.32679 17.518C6.23935 19.5759 5.21094 21.6338 5.21094 23.6918C5.21094 28.8371 10.3552 33.9814 17.5585 33.9814C24.7618 33.9814 29.9061 30.8951 29.9061 24.7202C29.9522 15.5885 19.3837 12.5372 16.529 8.25676C14.4711 5.16932 15.5006 3.11139 17.5574 1.05347C13.4415 2.08298 11.3836 4.96408 11.3836 8.25676L11.3847 8.25786Z" fill="url(#paint0_linear_483_4713)"/>
<path d="M27.368 26.4746C27.1104 26.4602 26.8704 26.6051 26.763 26.8396C25.6926 29.1025 24.4861 30.0184 22.3315 30.2326C21.9855 30.2493 21.7185 30.5432 21.7351 30.8891C21.7517 31.2351 22.0457 31.5021 22.3917 31.4854C22.4127 31.4845 22.4336 31.4824 22.4544 31.4793C24.957 31.2305 26.7115 29.8837 27.8976 27.3762C28.0496 27.0649 27.9206 26.6893 27.6093 26.5373C27.534 26.5006 27.4522 26.4793 27.3686 26.4747L27.368 26.4746Z" fill="white"/>
<path d="M19.8068 30.2349C19.4605 30.2349 19.1797 30.5157 19.1797 30.862C19.1797 31.2083 19.4605 31.4891 19.8068 31.4891C20.1531 31.4891 20.4339 31.2083 20.4339 30.862C20.4339 30.5157 20.1531 30.2349 19.8068 30.2349Z" fill="white"/>
</g>
<defs>
<filter id="filter0_f_483_4713" x="2.13453" y="-0.263666" width="28.2075" height="36.4402" filterUnits="userSpaceOnUse" color-interpolation-filters="sRGB">
<feFlood flood-opacity="0" result="BackgroundImageFix"/>
<feBlend mode="normal" in="SourceGraphic" in2="BackgroundImageFix" result="shape"/>
<feGaussianBlur stdDeviation="0.878049" result="effect1_foregroundBlur_483_4713"/>
</filter>
<linearGradient id="paint0_linear_483_4713" x1="17.5586" y1="1.05347" x2="17.5586" y2="33.9814" gradientUnits="userSpaceOnUse">
<stop stop-color="#F8B672"/>
<stop offset="1" stop-color="#F2851C"/>
</linearGradient>
<clipPath id="clip0_483_4713">
<rect width="35.122" height="36" fill="white"/>
</clipPath>
</defs>
</svg>
