<svg width="112" height="112" viewBox="0 0 112 112" fill="none" xmlns="http://www.w3.org/2000/svg">
<g clip-path="url(#clip0_483_4231)">
<g filter="url(#filter0_f_483_4231)">
<path d="M57.121 97.1561C53.2068 92.0226 51.3648 85.3501 51.3565 78.32C51.3615 70.7163 53.5314 62.6092 58.0307 55.3356C62.5248 48.07 69.4077 41.6544 78.6923 37.6803C83.8375 35.4754 87.2468 33.1597 89.4682 30.93C91.1545 29.2287 92.1965 27.5969 92.8706 25.9289C91.9845 24.8124 91.0551 23.7174 90.0578 22.6622C74.1305 5.80369 49.1001 2.72405 29.8367 13.8079C29.1259 14.8283 28.4616 15.8653 27.8885 16.9305C26.0497 20.3446 24.968 23.9259 24.9647 27.7974C24.9697 31.102 25.7483 34.6753 27.741 38.6725C30.7112 44.6311 32.1953 51.6283 32.2038 58.6072C32.1988 64.5539 31.1156 70.5026 28.7365 75.772C26.3646 81.0266 22.6156 85.6531 17.3445 88.4906C17.2816 88.5239 17.2153 88.5538 17.1523 88.5868C17.6229 89.1285 18.0999 89.6668 18.5969 90.1939C31.2478 103.582 49.6337 108.281 66.3133 104.103C65.7085 103.87 65.1072 103.631 64.5358 103.345C61.5688 101.862 59.076 99.7139 57.121 97.1561Z" fill="#F2851C"/>
</g>
<g filter="url(#filter1_f_483_4231)">
<path d="M60.8242 97.1561C56.9099 92.0226 55.0679 85.3501 55.0596 78.32C55.0646 70.7163 57.2346 62.6092 61.7338 55.3356C66.2279 48.07 73.1108 41.6544 82.3955 37.6803C87.5406 35.4754 90.9499 33.1597 93.1713 30.93C94.8576 29.2287 95.8996 27.5969 96.5737 25.9289C95.6876 24.8124 94.7582 23.7174 93.7609 22.6622C77.8336 5.80369 52.8033 2.72405 33.5398 13.8079C32.829 14.8283 32.1647 15.8653 31.5916 16.9305C29.7528 20.3446 28.6711 23.9259 28.6678 27.7974C28.6728 31.102 29.4514 34.6753 31.4441 38.6725C34.4143 44.6311 35.8985 51.6283 35.9069 58.6072C35.9019 64.5539 34.8187 70.5026 32.4396 75.772C30.0677 81.0266 26.3188 85.6531 21.0477 88.4906C20.9847 88.5239 20.9184 88.5538 20.8555 88.5868C21.3261 89.1285 21.803 89.6668 22.3001 90.1939C34.951 103.582 53.3368 108.281 70.0164 104.103C69.4116 103.87 68.8103 103.631 68.2389 103.345C65.272 101.862 62.7791 99.7139 60.8242 97.1561Z" fill="#F2851C"/>
</g>
<g filter="url(#filter2_f_483_4231)">
<path d="M59.2851 97.0325C55.3708 91.8991 53.5288 85.2266 53.5206 78.1964C53.5256 70.5928 55.6955 62.4857 60.1948 55.212C64.6889 47.9465 71.5718 41.5309 80.8564 37.5567C86.0015 35.3518 89.4108 33.0361 91.6322 30.8065C93.3186 29.1052 94.3605 27.4734 95.0346 25.8053C94.1486 24.6889 93.2191 23.5939 92.2219 22.5387C76.2945 5.68016 51.2642 2.60052 32.0007 13.6843C31.2899 14.7048 30.6256 15.7418 30.0525 16.807C28.2138 20.2211 27.132 23.8024 27.1288 27.6738C27.1338 30.9785 27.9123 34.5518 29.9051 38.549C32.8753 44.5076 34.3594 51.5048 34.3679 58.4837C34.3629 64.4304 33.2796 70.3791 30.9006 75.6484C28.5286 80.903 24.7797 85.5296 19.5086 88.3671C19.4456 88.4003 19.3794 88.4303 19.3164 88.4633C19.787 89.0049 20.2639 89.5433 20.761 90.0703C33.4119 103.458 51.7978 108.158 68.4774 103.98C67.8726 103.746 67.2712 103.508 66.6998 103.221C63.7329 101.739 61.24 99.5903 59.2851 97.0325Z" fill="white"/>
</g>
<g filter="url(#filter3_f_483_4231)">
<path d="M101.025 32.3459C99.4675 34.5426 97.4185 36.6363 94.8044 38.5578C92.1739 40.4978 88.98 42.2899 85.1105 43.9499C77.338 47.286 71.734 52.5389 68.0068 58.5421C64.2862 64.5387 62.4987 71.304 62.5039 77.4166C62.5005 81.6572 63.3618 85.5632 64.9058 88.6692C66.4579 91.7853 68.6183 94.0812 71.3711 95.4626C73.2149 96.3836 75.3633 96.9204 77.9559 96.9237C80.4787 96.9237 83.4589 96.3537 86.8365 95.0882C88.4251 93.9138 89.9657 92.6466 91.4366 91.2552C107.921 75.6807 111.237 51.4192 101.025 32.3459Z" fill="#F2851C"/>
</g>
<path d="M102.251 33.5747C100.694 35.7713 98.645 37.8651 96.031 39.7866C93.4004 41.7265 90.2065 43.5186 86.337 45.1786C78.5646 48.5148 72.9606 53.7677 69.2333 59.7708C65.5128 65.7675 63.7253 72.5327 63.7305 78.6453C63.727 82.886 64.5883 86.792 66.1324 89.8979C67.6845 93.014 69.8448 95.3099 72.5977 96.6914C74.4414 97.6124 76.5899 98.1492 79.1824 98.1525C81.7053 98.1525 84.6855 97.5824 88.0631 96.317C89.6517 95.1425 91.1923 93.8753 92.6631 92.4839C109.147 76.9095 112.464 52.6479 102.251 33.5747Z" fill="white"/>
<g filter="url(#filter4_f_483_4231)">
<path d="M26.9174 56.4458C27.1831 50.6009 26.1415 44.6204 24.0068 39.8571C21.7486 34.8049 20.8382 29.9132 21.0426 25.3474C21.1008 24.0251 21.2797 22.7463 21.511 21.4863C6.39851 37.1535 3.55105 60.8089 13.934 79.4611C14.3471 79.3019 14.7684 79.1514 15.1613 78.963C17.5452 77.8096 19.5604 76.0991 21.2574 73.8988C24.6536 69.5182 26.6377 63.099 26.9174 56.4458Z" fill="#F2851C"/>
</g>
<path d="M24.4526 57.6209C24.7183 51.776 23.6767 45.7955 21.542 41.0322C19.2838 35.98 18.3734 31.0882 18.5777 26.5225C18.6359 25.2001 18.8149 23.9213 19.0462 22.6614C3.93366 38.3286 1.0862 61.984 11.4691 80.6362C11.8822 80.477 12.3036 80.3264 12.6964 80.1381C15.0803 78.9846 17.0956 77.2742 18.7926 75.0738C22.1888 70.6932 24.1729 64.274 24.4526 57.6209Z" fill="white"/>
</g>
<defs>
<filter id="filter0_f_483_4231" x="12.2372" y="2.36416" width="85.549" height="108.132" filterUnits="userSpaceOnUse" color-interpolation-filters="sRGB">
<feFlood flood-opacity="0" result="BackgroundImageFix"/>
<feBlend mode="normal" in="SourceGraphic" in2="BackgroundImageFix" result="shape"/>
<feGaussianBlur stdDeviation="2.45757" result="effect1_foregroundBlur_483_4231"/>
</filter>
<filter id="filter1_f_483_4231" x="15.9403" y="2.36416" width="85.549" height="108.132" filterUnits="userSpaceOnUse" color-interpolation-filters="sRGB">
<feFlood flood-opacity="0" result="BackgroundImageFix"/>
<feBlend mode="normal" in="SourceGraphic" in2="BackgroundImageFix" result="shape"/>
<feGaussianBlur stdDeviation="2.45757" result="effect1_foregroundBlur_483_4231"/>
</filter>
<filter id="filter2_f_483_4231" x="19.1935" y="7.03288" width="75.9645" height="98.547" filterUnits="userSpaceOnUse" color-interpolation-filters="sRGB">
<feFlood flood-opacity="0" result="BackgroundImageFix"/>
<feBlend mode="normal" in="SourceGraphic" in2="BackgroundImageFix" result="shape"/>
<feGaussianBlur stdDeviation="0.0614392" result="effect1_foregroundBlur_483_4231"/>
</filter>
<filter id="filter3_f_483_4231" x="57.5888" y="27.4308" width="54.1506" height="74.4081" filterUnits="userSpaceOnUse" color-interpolation-filters="sRGB">
<feFlood flood-opacity="0" result="BackgroundImageFix"/>
<feBlend mode="normal" in="SourceGraphic" in2="BackgroundImageFix" result="shape"/>
<feGaussianBlur stdDeviation="2.45757" result="effect1_foregroundBlur_483_4231"/>
</filter>
<filter id="filter4_f_483_4231" x="2.84658" y="16.5712" width="29.0256" height="67.8051" filterUnits="userSpaceOnUse" color-interpolation-filters="sRGB">
<feFlood flood-opacity="0" result="BackgroundImageFix"/>
<feBlend mode="normal" in="SourceGraphic" in2="BackgroundImageFix" result="shape"/>
<feGaussianBlur stdDeviation="2.45757" result="effect1_foregroundBlur_483_4231"/>
</filter>
<clipPath id="clip0_483_4231">
<rect width="110.591" height="110.591" fill="white" transform="translate(0.902344 0.52002)"/>
</clipPath>
</defs>
</svg>
