<svg width="103" height="103" viewBox="0 0 103 103" fill="none" xmlns="http://www.w3.org/2000/svg">
<g clip-path="url(#clip0_506_4289)">
<g filter="url(#filter0_f_506_4289)">
<path d="M62.0178 14.4009C57.1958 14.3909 52.4491 15.5964 48.2163 17.9063C43.9835 20.2161 40.4013 23.5557 37.8007 27.6163C35.2002 31.677 33.6651 36.3277 33.3376 41.1385C33.01 45.9494 33.9004 50.7652 35.9265 55.1409L7.71875 83.3477L12.2355 87.8644L39.3444 60.7554C40.8161 62.6476 42.5177 64.3492 44.4099 65.8209L33.2712 76.9595L37.788 81.4763L50.0254 69.2395C53.9281 71.0344 58.1837 71.9313 62.4788 71.8644C66.774 71.7975 70.9995 70.7683 74.8444 68.8527C78.6894 66.9371 82.0558 64.1838 84.6962 60.7953C87.3365 57.4068 89.1835 53.4695 90.1012 49.2729C91.0189 45.0764 90.984 40.7275 89.9991 36.5463C89.0142 32.365 87.1042 28.4578 84.4099 25.1121C81.7155 21.7665 78.3053 19.0675 74.4302 17.2138C70.555 15.3602 66.3135 14.399 62.0178 14.4009ZM84.0754 39.6526C79.4202 38.9085 75.1191 36.7131 71.7856 33.3797C68.4522 30.0462 66.2568 25.7451 65.5128 21.0899C70.1679 21.834 74.469 24.0294 77.8025 27.3628C81.1359 30.6963 83.3313 34.9974 84.0754 39.6526ZM39.9603 46.6425C44.6154 47.3865 48.9165 49.5819 52.25 52.9153C55.5834 56.2488 57.7788 60.5499 58.5229 65.2051C53.8677 64.461 49.5666 62.2656 46.2331 58.9322C42.8997 55.5987 40.7043 51.2976 39.9603 46.6425ZM64.9883 65.2846C64.2144 58.894 61.3202 52.9473 56.7684 48.3953C52.2166 43.8434 46.2701 40.9489 39.8794 40.1748C40.5369 35.3235 42.7675 30.8219 46.2292 27.3602C49.6909 23.8984 54.1926 21.6678 59.0438 21.0104C59.8177 27.4011 62.7119 33.3477 67.2637 37.8997C71.8155 42.4516 77.7621 45.3461 84.1527 46.1202C83.4952 50.9715 81.2646 55.4731 77.8029 58.9349C74.3412 62.3966 69.8395 64.6272 64.9883 65.2846Z" fill="#F2851C"/>
</g>
<path d="M61.0178 13.4012C56.1958 13.3911 51.4491 14.5967 47.2163 16.9065C42.9835 19.2164 39.4013 22.556 36.8007 26.6166C34.2002 30.6772 32.6651 35.3279 32.3376 40.1388C32.01 44.9496 32.9004 49.7655 34.9265 54.1411L6.71875 82.3479L11.2355 86.8646L38.3444 59.7557C39.8161 61.6478 41.5177 63.3494 43.4099 64.8211L32.2712 75.9598L36.788 80.4765L49.0254 68.2397C52.9281 70.0346 57.1837 70.9316 61.4788 70.8646C65.774 70.7977 69.9995 69.7686 73.8444 67.8529C77.6894 65.9373 81.0558 63.184 83.6962 59.7955C86.3365 56.4071 88.1835 52.4697 89.1012 48.2732C90.0189 44.0767 89.984 39.7278 88.9991 35.5465C88.0142 31.3653 86.1042 27.4581 83.4099 24.1124C80.7155 20.7667 77.3053 18.0678 73.4302 16.2141C69.555 14.3604 65.3135 13.3992 61.0178 13.4012ZM83.0754 38.6528C78.4203 37.9088 74.1191 35.7134 70.7856 32.3799C67.4522 29.0465 65.2568 24.7453 64.5128 20.0902C69.1679 20.8342 73.469 23.0296 76.8025 26.3631C80.1359 29.6965 82.3313 33.9977 83.0754 38.6528ZM38.9603 45.6427C43.6154 46.3867 47.9165 48.5821 51.25 51.9156C54.5834 55.249 56.7788 59.5502 57.5229 64.2053C52.8678 63.4613 48.5666 61.2659 45.2331 57.9324C41.8997 54.599 39.7043 50.2978 38.9603 45.6427ZM63.9883 64.2848C63.2144 57.8942 60.3202 51.9476 55.7684 47.3956C51.2166 42.8436 45.2701 39.9492 38.8794 39.175C39.5369 34.3238 41.7675 29.8221 45.2292 26.3604C48.6909 22.8987 53.1926 20.6681 58.0438 20.0107C58.8177 26.4013 61.7119 32.3479 66.2637 36.8999C70.8155 41.4519 76.7621 44.3463 83.1527 45.1205C82.4952 49.9717 80.2646 54.4734 76.8029 57.9351C73.3412 61.3968 68.8395 63.6274 63.9883 64.2848Z" fill="url(#paint0_linear_506_4289)"/>
</g>
<defs>
<filter id="filter0_f_506_4289" x="2.60825" y="9.29038" width="93.2679" height="83.6844" filterUnits="userSpaceOnUse" color-interpolation-filters="sRGB">
<feFlood flood-opacity="0" result="BackgroundImageFix"/>
<feBlend mode="normal" in="SourceGraphic" in2="BackgroundImageFix" result="shape"/>
<feGaussianBlur stdDeviation="2.55525" result="effect1_foregroundBlur_506_4289"/>
</filter>
<linearGradient id="paint0_linear_506_4289" x1="48.2417" y1="13.4011" x2="48.2417" y2="86.8646" gradientUnits="userSpaceOnUse">
<stop stop-color="#F8B672"/>
<stop offset="1" stop-color="#F2851C"/>
</linearGradient>
<clipPath id="clip0_506_4289">
<rect width="102.21" height="102.21" fill="white" transform="translate(0.335938 0.624512)"/>
</clipPath>
</defs>
</svg>
