<svg width="218" height="200" viewBox="0 0 218 200" fill="none" xmlns="http://www.w3.org/2000/svg">
<path d="M10.4216 112.717C14.544 111.943 17.2587 107.974 16.485 103.851C15.7112 99.729 11.7421 97.0143 7.61964 97.788C3.49719 98.5617 0.782507 102.531 1.55624 106.653C2.32997 110.776 6.29911 113.49 10.4216 112.717Z" stroke="#4285FA" stroke-width="2.21464" stroke-linecap="round" stroke-linejoin="round"/>
<path d="M216.802 85.0982C216.698 85.758 216.4 86.372 215.947 86.8626C215.494 87.3531 214.905 87.6983 214.256 87.8543C213.606 88.0103 212.925 87.9702 212.298 87.7391C211.672 87.508 211.127 87.0962 210.735 86.5558C210.342 86.0154 210.119 85.3707 210.092 84.7032C210.066 84.0358 210.239 83.3755 210.588 82.806C210.937 82.2365 211.447 81.7834 212.054 81.5038C212.66 81.2243 213.336 81.1309 213.996 81.2355C214.88 81.3764 215.672 81.8622 216.198 82.5864C216.724 83.3106 216.941 84.2139 216.802 85.0982V85.0982Z" stroke="#689EFB" stroke-width="2.21464" stroke-linecap="round" stroke-linejoin="round"/>
<path d="M203.543 29.0659C207.168 25.4406 207.168 19.5628 203.543 15.9375C199.918 12.3122 194.04 12.3122 190.415 15.9375C186.789 19.5628 186.789 25.4406 190.415 29.0659C194.04 32.6912 199.918 32.6912 203.543 29.0659Z" stroke="#34618E" stroke-width="2.21464" stroke-linecap="round" stroke-linejoin="round"/>
<path d="M64.5484 25.21C59.2827 28.6378 52.2934 29.7628 47.7694 24.5924C42.6927 18.7981 46.7588 10.6365 50.1573 10.6943C52.6921 10.7369 56.3914 13.72 53.226 17.7816C50.0607 21.8432 43.1446 22.5884 38.4694 20.3178C33.7942 18.0471 32.6577 12.1862 32.85 8.80651" stroke="#34618E" stroke-width="2.21464" stroke-linecap="round" stroke-linejoin="round"/>
<path d="M173.467 196.147C168.65 196.868 165.485 194.707 166.428 192.197C167.372 189.688 167.441 186.409 161.925 186.133C156.409 185.858 154.191 183.933 155.712 180.746C157.233 177.56 154.887 176.01 150.701 176.204" stroke="#F2851C" stroke-width="2.21464" stroke-linecap="round" stroke-linejoin="round"/>
<circle cx="116.175" cy="92.2414" r="81.489" fill="#8EB6FC"/>
<path d="M144.615 59.9726V90.8498H135.909V59.9726C136.082 57.2549 135.699 54.5304 134.784 51.9675C133.87 49.4045 132.443 47.0575 130.592 45.0714C128.742 43.0853 126.506 41.5023 124.023 40.4202C121.541 39.338 118.864 38.7797 116.159 38.7797C113.454 38.7797 110.778 39.338 108.295 40.4202C105.813 41.5023 103.577 43.0853 101.726 45.0714C99.8752 47.0575 98.4485 49.4045 97.5341 51.9675C96.6196 54.5304 96.2369 57.2549 96.4095 59.9726V90.8498H87.7034V59.9726C87.4976 56.0826 88.0811 52.1911 89.4182 48.5355C90.7554 44.8798 92.8181 41.5367 95.4807 38.7098C98.1433 35.883 101.35 33.6316 104.905 32.0931C108.46 30.5546 112.29 29.7612 116.159 29.7612C120.029 29.7612 123.858 30.5546 127.413 32.0931C130.969 33.6316 134.175 35.883 136.838 38.7098C139.5 41.5367 141.563 44.8798 142.9 48.5355C144.237 52.1911 144.821 56.0826 144.615 59.9726Z" fill="#EBEBEB"/>
<path d="M87.7432 68.0061L96.4089 68.3307V90.8495H87.7432V68.0061Z" fill="#C7C7C7"/>
<path d="M144.616 70.3178V90.8485H135.95V69.9526L144.616 70.3178Z" fill="#C7C7C7"/>
<path d="M155.739 79.4075H76.6191V145.503H155.739V79.4075Z" fill="#F2851C"/>
<path d="M119.509 112.029L122.814 127.812H108.747L112.092 112.029C110.793 111.22 109.792 110.007 109.24 108.573C108.689 107.139 108.617 105.563 109.037 104.084C109.457 102.606 110.344 101.305 111.565 100.381C112.786 99.4569 114.273 98.9592 115.801 98.9637C117.328 98.9592 118.815 99.4569 120.036 100.381C121.257 101.305 122.145 102.606 122.564 104.084C122.984 105.563 122.912 107.139 122.361 108.573C121.809 110.007 120.808 111.22 119.509 112.029Z" fill="#152946"/>
</svg>
